<?xml version="1.0" encoding="UTF-8"?>
<svg xmlns="http://www.w3.org/2000/svg" viewBox="0 0 410 110" width="410" height="110" role="img" aria-label="entros">
  <defs>
    <style>
      .wordmark { fill: #0A0A0F; }
      .dot { fill: #00F0FF; }
      @media (prefers-color-scheme: dark) {
        .wordmark { fill: #FAFAF8; }
      }
    </style>
  </defs>
  <g class="wordmark">
    <path d="M300 -10Q201 -10 140.5 49.0Q80 108 80 210V340Q80 442 140.5 501.0Q201 560 300 560Q366 560 415.5 533.5Q465 507 492.5 459.5Q520 412 520 349V250H177V202Q177 142 210.0 108.0Q243 74 300 74Q348 74 379.0 92.0Q410 110 416 142H515Q505 72 446.0 31.0Q387 -10 300 -10ZM177 349V323H423V349Q423 412 391.0 446.0Q359 480 300 480Q241 480 209.0 446.0Q177 412 177 349Z" transform="translate(0 92) scale(0.11 -0.11)"/>
    <path d="M88 0V550H186V445H187Q194 499 232.5 529.5Q271 560 334 560Q416 560 465.0 508.0Q514 456 514 368V0H415V352Q415 412 385.0 444.0Q355 476 303 476Q249 476 218.0 442.5Q187 409 187 349V0Z" transform="translate(63 92) scale(0.11 -0.11)"/>
    <path d="M355 0Q284 0 242.5 41.0Q201 82 201 150V460H44V550H201V705H300V550H523V460H300V151Q300 124 315.5 107.0Q331 90 357 90H518V0Z" transform="translate(126 92) scale(0.11 -0.11)"/>
    <path d="M108 0V550H206V444H207Q215 498 253.5 529.0Q292 560 356 560Q441 560 488.0 507.5Q535 455 535 360V312H436V359Q436 474 323 474Q266 474 236.5 441.0Q207 408 207 347V0Z" transform="translate(189 92) scale(0.11 -0.11)"/>
    <path d="M300 -8Q199 -8 139.5 50.0Q80 108 80 212V338Q80 442 139.5 500.0Q199 558 300 558Q401 558 460.5 500.0Q520 442 520 338V212Q520 108 460.5 50.0Q401 -8 300 -8ZM300 79Q356 79 388.5 110.5Q421 142 421 203V347Q421 408 388.5 439.5Q356 471 300 471Q244 471 211.5 439.5Q179 408 179 347V203Q179 142 211.5 110.5Q244 79 300 79Z" transform="translate(252 92) scale(0.11 -0.11)"/>
    <path d="M278 -8Q184 -8 132.0 34.0Q80 76 80 152H178Q178 116 204.5 95.5Q231 75 278 75H322Q371 75 397.5 96.0Q424 117 424 155Q424 222 358 230L210 251Q151 260 119.0 299.5Q87 339 87 402Q87 476 137.0 517.0Q187 558 277 558H321Q405 558 457.0 518.0Q509 478 512 412H412Q410 440 386.0 458.5Q362 477 321 477H277Q232 477 207.5 457.0Q183 437 183 403Q183 348 238 341L377 321Q520 302 520 155Q520 77 468.5 34.5Q417 -8 322 -8Z" transform="translate(315 92) scale(0.11 -0.11)"/>
  </g>
  <rect x="386" y="80" width="12" height="12" class="dot"/>
</svg>
